<?xml version="1.0" encoding="utf-8"?>
<!-- Generator: Adobe Illustrator 28.0.0, SVG Export Plug-In . SVG Version: 6.00 Build 0)  -->
<svg version="1.1" id="Layer_1" xmlns="http://www.w3.org/2000/svg" xmlns:xlink="http://www.w3.org/1999/xlink" x="0px" y="0px"
	 viewBox="0 0 165.5 196.2" style="enable-background:new 0 0 165.5 196.2;" xml:space="preserve">
<style type="text/css">
	.st0{fill:none;}
	.st1{fill:#F4CE18;}
	.st2{fill:#4A5F58;}
	.st3{fill:#959D98;}
	.st4{fill:#6E7A74;}
</style>
<rect class="st0" width="147.5" height="40"/>
<g>
	<path class="st1" d="M27.1,91.2c0-0.5,0-1,0-1.5c0.3-3.5,0.8-7,0.4-10.5c-0.1-0.7,0-1.4,0.4-2c0.5-1,0.9-2.1,1.1-3.2
		c0.2-1.2,0.7-2.3,1.4-3.3c1-1.3,1.3-3,1.6-4.5c0.6-2.7,1.7-5,3.5-7.2c1.7-1.9,2.6-4.4,3.2-6.8c0.6-2.3,1.4-4.4,2.5-6.5
		c0.7-1.3,1.3-2.7,1.6-4.2c0.1-0.5,0.2-1,0.5-1.4c2.1-2.7,2.1-6.1,2.4-9.3c0.2-1.6,0.4-3.3,0.3-5c0-0.2-0.1,0,0-0.1
		c1.2-2.2,1.9-4.8,3.9-6.5c1.6-1.4,3.1-3.2,5.1-4.1c2-0.9,4.2-1.4,6.4-2c0.9-0.3,1.7,0.2,2.5,0.6c0.5,0.4,1,0.3,1.5,0
		c1.1-0.8,2.3-1,3.6-1.3c2.8-0.6,5.7-1,8.6-1c1.9,0,3.8-0.6,5.7-0.5c2.8,0.1,5.6,0.4,8.4,0.3c0.4,0,0.8,0.1,1.2,0.2
		c1.6,0.5,3.3,0.7,5,0.8c2.2,0,4.4,0.6,6.7,0.8c0.5,0.1,0.9,0.3,0.9,0.9c0,0.6-0.4,0.8-0.9,0.8c-0.5,0.1-1.1,0.1-1.6,0.1
		c-3.4,0-6.9-0.2-10.3,0.1c-3.1,0.3-6.2,0.4-9.2,0.3c-4.9-0.1-9.7,0.6-14.5,0.4c-0.4,0-0.9-0.2-1.1,0.3c-0.1,0.4,0.3,0.6,0.6,0.9
		c1.8,1.9,3.8,3.6,5.6,5.5c1.3,1.4,3.3,1.9,5.2,2.2c0.6,0.1,1.1,0.2,1.6,0.5c2.2,1.3,4.4,2.3,6.9,2.9c0.5,0.1,1,0.4,1.5,0.6
		c1.5,0.9,3,1.9,4.3,3.1c1.2,1,2.5,1.9,4.1,2.3c1.1,0.3,1.8,1,2.5,1.8c0.6,0.6,1.2,1.2,1.9,1.5c4.1,2.1,7.4,5.2,10.8,8.4
		c0.6,0.6,1.2,1.2,2,1.7c2,1.3,2.8,3.4,4.2,5.2c0.5,0.6,0.9,1.3,1.6,1.7c2.2,1.3,2.9,3.7,4.1,5.7c0.5,0.8,0.9,1.6,1.6,2.2
		c0.5,0.5,1.1,1.1,1.2,1.9c0.5,2.4,1.8,4.2,3.1,6.2c0.7,1,1.1,2.1,1.3,3.3c0.5,3.2,2.1,6,3.2,9c0.8,2.4,1.2,4.8,2.1,7.2
		c0.1,0.3,0.1,0.7,0.1,1c-0.5,1.8-0.1,3.5,0.5,5.2c0.4,1.1,0.5,2.4,0.5,3.6c-0.1,3.9,0.1,7.8,0,11.7c0,0.5,0,1.1-0.2,1.6
		c-0.4,1.7-0.6,3.3,0,5c0.2,0.7,0,1.3-0.2,1.9c-1.2,3.1-1.5,6.4-1.8,9.6c-0.1,1.9-1,3.7-1.1,5.6c-0.1,2.2-1.2,4-1.9,5.9
		c-0.7,1.7-1.2,3.5-1.6,5.2c-0.6,2.9-1.8,5.5-2.8,8.2c-0.1,0.3-0.3,0.6-0.3,0.9c-0.3,2.1-1.1,4.1-2.4,5.8c-1.5,2-2,4.4-2.6,6.7
		c-0.4,1.6-1,3.1-2.4,4.2c-1.1,0.9-1.4,2.4-1.8,3.6c-0.6,1.7-1.1,3.4-1.5,5.1c-0.3,1.4-0.5,2.9,0,4.3c0.3,0.7,0.1,1.5-0.1,2.2
		c-0.3,0.8-0.7,1.6-0.9,2.4c-0.4,1.5-1.4,2.1-2.8,2.1c-1.5,0-3.1,0.2-4.6,0.2c-0.9,0-1.7-0.3-2.4-0.9c-1.6-1.3-3.1-2.7-5.1-3.6
		c-0.6-0.3-1.1-0.7-1.5-1.3c-1.6-2.1-3.8-3.4-6.4-4c-0.8-0.2-1.5-0.4-2.1-1c-1.3-1.1-2.8-1.5-4.4-1.8c-5.9-1.3-11.5-3.6-16.8-6.4
		c-1-0.5-2-1.2-2.7-2.2c-2.3-3-5.5-4.9-8.3-7.2c-1.6-1.2-2.6-2.9-3.9-4.4c-0.8-0.8-1.4-1.7-2.3-2.4c-0.9-0.8-1.8-1.6-2.3-2.7
		c-0.4-0.8-1-1.4-1.7-2c-2.7-2.1-4.6-4.8-6-7.9c-0.9-2.2-2.4-4-4-5.7c-2.1-2.4-3.2-5.2-4.9-7.8c-1-1.6-1.2-3.5-1.5-5.4
		c-0.4-1.9-0.8-3.7-1.5-5.5c-0.7-1.6-0.9-3.3-1.2-4.9c-0.1-0.5-0.1-1.1-0.4-1.6c-1.5-3-1.4-6.3-1.7-9.6c-0.1-1.6-0.9-3.1-0.5-4.7
		C28.3,96.5,27.5,93.9,27.1,91.2z"/>
	<path class="st2" d="M63.6,14.1c1.6-0.8,3-1.8,4.3-3.1c0.4-0.4,0.8-0.5,1.3-0.7c2.2-0.8,4.4-1.7,6.4-2.9C77,6.6,78.4,5.9,80,5.8
		c1.6-0.1,3-1,4.5-1.4c1-0.2,2,0,2.9-0.1c0.9-0.1,1.9,0.2,2.8-0.1c1.3,0,2.7,0,4,0c2,0.7,4.1,1,6.1,1.4c2.4,0.5,4.4,1.8,6.6,2.6
		c2.2,0.8,4.5,1,6.7,1.8c1.2,0.4,2.3,0.9,3.5,1.3c2.4,0.9,3.5,2.8,4,5.1c0.1,0.5-0.1,0.7-0.4,1.1c-3.1,3.2-7,5.2-11.1,6.8
		c-5.1,2.1-10.4,3.7-15.9,4.6c-1.5,0.2-3,0.3-4.5,0.5c-3.1-1.1-6.2-2.1-9.1-3.7c-1.5-0.8-3.5-0.8-5.1-1.6c-0.5-0.2-1-0.4-1.4-0.8
		c-2.1-2.8-5.1-4.7-7.3-7.6c1-0.3,2-0.3,3-0.3c3.2-0.1,6.4-0.2,9.6-0.4c3-0.1,6,0,8.9-0.1c5.5-0.3,10.9-0.1,16.4-0.3
		c0.3,0,0.9,0.2,0.9-0.3c0-0.5-0.5-0.3-0.9-0.4c-4.1-0.7-8.3-0.5-12.3-1.7c-0.2-0.1-0.4-0.1-0.6-0.1c-3.1,0.4-6.2-0.5-9.3-0.2
		c-4.9,0.5-9.8,0.3-14.6,1.7c-0.7,0.2-1.4,0.6-2,1C64.9,14.7,64.3,14.7,63.6,14.1z"/>
	<path class="st3" d="M87.4,4.3c-1,0-2,0-3,0c0-0.1,0-0.1,0-0.2c1,0,2,0,3,0C87.6,4.2,87.6,4.3,87.4,4.3z"/>
	<path class="st4" d="M87.4,4.3c0-0.1,0-0.1,0-0.2c0.9,0,1.8,0,2.7,0C89.3,4.6,88.4,4.3,87.4,4.3z"/>
	<path class="st2" d="M50.8,40.7c-0.1-2.8,0.7-4.9,1.1-7.1c0.4-2.1,0.8-4.2,1.6-6.3c0.4-0.9,0.7-1.8,1.4-2.6
		c1.1-1.3,1.6-2.8,2.3-4.2c0.7-1.4,1.3-2.8,3.1-3.6c2-0.8,3.5,0,4.7,1.2c2.4,2.4,5.2,4.6,7.2,7.4c0.2,0.2,0.4,0.5,0.6,0.6
		c2.4,1.3,4.2,3.2,5.9,5.3c1.8,2.3,4.6,3.6,6.1,6.2c1.7,3.1,3.5,6.1,4,9.8c0.4,3.3,0.8,6.7,1.7,9.9c0.2,0.6,0.1,1.2,0.1,1.8
		c-0.4,3.9-0.2,7.8,0.9,11.6c0.5,1.8-0.7,3.2-2.6,2.8c-0.3-0.1-0.7-0.2-0.9-0.3c-3.4-2.1-7.3-3.1-10.6-5.3c-2.6-1.7-5.8-2.4-8.5-4
		c-3.3-1.9-7-3.2-9.8-5.7c-2.2-2-3.6-4.6-5.3-7.1c-0.9-1.3-1.6-2.7-1.7-4.3C51.7,44.6,50.7,42.5,50.8,40.7z"/>
	<path class="st1" d="M83.4,62.3c-3.7-2.2-6.1-5.4-8.4-8.8c-0.9-1.3-1.8-2.7-2.6-4.1c-4.3-7.7-8.4-15.4-10.5-24c0-0.1,0-0.2,0-0.6
		c1.3,1.6,2.8,2.8,3.5,4.5c0.8,1.7,1.7,3.3,2.8,4.8c1.5,2.2,2.9,4.5,3.8,7.1c0.8,2.2,2.2,4.1,3.4,6c1.4,2.2,2.6,4.4,3.5,6.9
		c1,2.5,2.8,4.6,4,7C83.1,61.4,83.5,61.7,83.4,62.3z"/>
</g>
</svg>
